<mxfile host="app.diagrams.net" modified="2020-12-07T16:49:56.286Z" agent="5.0 (Windows)" etag="LvrZFcQBX-_eByHJ_x8s" version="13.11.0" type="github">
  <diagram id="kgpKYQtTHZ0yAKxKKP6v" name="Page-1">
    <mxGraphModel dx="2272" dy="763" grid="1" gridSize="10" guides="1" tooltips="1" connect="1" arrows="1" fold="1" page="1" pageScale="1" pageWidth="850" pageHeight="1100" math="0" shadow="0">
      <root>
        <mxCell id="0" />
        <mxCell id="1" parent="0" />
        <mxCell id="p5y0WC-DLRsksyQ9pt_e-1" value="STUDENT" style="shape=umlActor;verticalLabelPosition=bottom;verticalAlign=top;html=1;" vertex="1" parent="1">
          <mxGeometry x="-20" y="70" width="30" height="60" as="geometry" />
        </mxCell>
        <mxCell id="p5y0WC-DLRsksyQ9pt_e-2" value="UNIVERSITY" style="shape=umlActor;verticalLabelPosition=bottom;verticalAlign=top;html=1;" vertex="1" parent="1">
          <mxGeometry x="-20" y="290" width="30" height="60" as="geometry" />
        </mxCell>
        <mxCell id="p5y0WC-DLRsksyQ9pt_e-5" value="COMPANY" style="shape=umlActor;verticalLabelPosition=bottom;verticalAlign=top;html=1;" vertex="1" parent="1">
          <mxGeometry x="-20" y="490" width="30" height="60" as="geometry" />
        </mxCell>
        <mxCell id="p5y0WC-DLRsksyQ9pt_e-7" value="&lt;font color=&quot;#FFFFFF&quot;&gt;Stage&amp;amp;Work&lt;/font&gt;" style="shape=umlFrame;whiteSpace=wrap;html=1;fillColor=#050505;width=80;height=38;" vertex="1" parent="1">
          <mxGeometry x="100" y="2.5" width="600" height="635" as="geometry" />
        </mxCell>
        <mxCell id="p5y0WC-DLRsksyQ9pt_e-14" value="&amp;lt;&amp;lt; actor &amp;gt;&amp;gt;&lt;br&gt;DATABASE" style="rounded=1;arcSize=10;whiteSpace=wrap;html=1;align=center;strokeColor=#000000;fillColor=#050505;fontColor=#FFFFFF;" vertex="1" parent="1">
          <mxGeometry x="770" y="280" width="100" height="40" as="geometry" />
        </mxCell>
        <mxCell id="p5y0WC-DLRsksyQ9pt_e-15" value="LOGIN" style="ellipse;whiteSpace=wrap;html=1;align=center;fillColor=#FFFFFF;" vertex="1" parent="1">
          <mxGeometry x="170" y="250" width="100" height="40" as="geometry" />
        </mxCell>
        <mxCell id="p5y0WC-DLRsksyQ9pt_e-16" value="SUBSCRIBE" style="ellipse;whiteSpace=wrap;html=1;align=center;fillColor=#FFFFFF;" vertex="1" parent="1">
          <mxGeometry x="170" y="370" width="100" height="40" as="geometry" />
        </mxCell>
        <mxCell id="p5y0WC-DLRsksyQ9pt_e-17" value="NEW OFFER" style="ellipse;whiteSpace=wrap;html=1;align=center;fillColor=#FFFFFF;" vertex="1" parent="1">
          <mxGeometry x="170" y="530" width="100" height="40" as="geometry" />
        </mxCell>
        <mxCell id="p5y0WC-DLRsksyQ9pt_e-18" value="NEW EVENT" style="ellipse;whiteSpace=wrap;html=1;align=center;fillColor=#FFFFFF;" vertex="1" parent="1">
          <mxGeometry x="170" y="450" width="100" height="40" as="geometry" />
        </mxCell>
      </root>
    </mxGraphModel>
  </diagram>
</mxfile>
